<svg width="20" height="20" viewBox="0 0 20 20" fill="none" xmlns="http://www.w3.org/2000/svg">
<path fill-rule="evenodd" clip-rule="evenodd" d="M2.07827 0.833374C1.61915 0.833374 1.24695 1.20647 1.24695 1.66671C1.24695 2.12694 1.61915 2.50004 2.07827 2.50004C2.68383 2.50004 3.21286 2.94111 3.32178 3.56171L3.89197 6.81062L3.89248 6.81349L4.2578 8.8601C4.48629 10.1402 4.66875 11.1624 4.89943 11.9744C5.13732 12.8118 5.44564 13.5008 5.96931 14.0831C6.32898 14.483 6.7498 14.8254 7.21617 15.0986C7.89178 15.4944 8.63657 15.6687 9.52207 15.7521C10.3847 15.8334 11.454 15.8334 12.801 15.8334H13.2104C13.8095 15.8334 14.3034 15.8334 14.7103 15.8037C15.1342 15.7728 15.5199 15.7069 15.8943 15.5469C16.4401 15.3137 16.9182 14.947 17.2803 14.4791C17.5303 14.156 17.6864 13.7998 17.8143 13.4019C17.9365 13.0222 18.0478 12.5542 18.1817 11.9919L18.1985 11.9209C18.402 11.0663 18.5682 10.368 18.6487 9.79776C18.7315 9.21104 18.7405 8.6592 18.5521 8.1273C18.2871 7.37955 17.7657 6.75003 17.0833 6.33992C16.6027 6.05102 16.0591 5.93798 15.4561 5.88504C14.8673 5.83335 14.1296 5.83336 13.2192 5.83337H5.40865L4.95928 3.27294C4.7127 1.86791 3.50344 0.833374 2.07827 0.833374ZM13.1804 7.50004C14.1388 7.50004 14.8035 7.50079 15.3111 7.54535C15.8127 7.5894 16.0636 7.67031 16.2283 7.76933C16.5879 7.98544 16.8527 8.31081 16.9853 8.68513C17.0431 8.84832 17.0696 9.08843 17.0024 9.56429C16.9342 10.0477 16.787 10.6697 16.5717 11.5743C16.4287 12.1753 16.3318 12.5798 16.2319 12.8905C16.1356 13.1899 16.0533 13.3455 15.9666 13.4575C15.7811 13.6971 15.5324 13.8898 15.2422 14.0138C15.1025 14.0735 14.9189 14.1174 14.5897 14.1414C14.2502 14.1662 13.8169 14.1667 13.1804 14.1667H12.8429C11.4447 14.1667 10.4535 14.1659 9.67767 14.0928C8.91574 14.021 8.43936 13.8848 8.0551 13.6597C7.7349 13.4721 7.44802 13.2382 7.20424 12.9671C6.91478 12.6453 6.699 12.2236 6.4985 11.5179C6.29342 10.796 6.12473 9.85655 5.88666 8.52286L5.70409 7.50004H13.1804Z" fill="black"/>
<path d="M8.72889 17.2917C8.72889 17.867 8.26364 18.3334 7.68973 18.3334C7.11582 18.3334 6.65057 17.867 6.65057 17.2917C6.65057 16.7164 7.11582 16.25 7.68973 16.25C8.26364 16.25 8.72889 16.7164 8.72889 17.2917Z" fill="black"/>
<path d="M15.1716 18.3334C15.7456 18.3334 16.2108 17.867 16.2108 17.2917C16.2108 16.7164 15.7456 16.25 15.1716 16.25C14.5977 16.25 14.1325 16.7164 14.1325 17.2917C14.1325 17.867 14.5977 18.3334 15.1716 18.3334Z" fill="black"/>
</svg>
