<svg width="16" height="15" viewBox="0 0 16 15" fill="none" xmlns="http://www.w3.org/2000/svg">
<g clip-path="url(#clip0_1_23)">
<path fill-rule="evenodd" clip-rule="evenodd" d="M2.83339 7.14583C1.85539 7.14583 1.06256 6.353 1.06256 5.375V1.83333C1.06256 0.855329 1.85539 0.0625 2.83339 0.0625H6.37506C7.35306 0.0625 8.14589 0.855329 8.14589 1.83333V5.375C8.14589 6.353 7.35306 7.14583 6.37506 7.14583H2.83339ZM2.47923 5.375C2.47923 5.5706 2.63779 5.72917 2.83339 5.72917H6.37506C6.57066 5.72917 6.72923 5.5706 6.72923 5.375V1.83333C6.72923 1.63773 6.57066 1.47917 6.37506 1.47917H2.83339C2.63779 1.47917 2.47923 1.63773 2.47923 1.83333V5.375Z" fill="#AFAFAF"/>
<path fill-rule="evenodd" clip-rule="evenodd" d="M5.43723 8.34594C4.78156 7.69027 3.71852 7.69027 3.06285 8.34594L1.20013 10.2086C0.544456 10.8643 0.544456 11.9274 1.20013 12.583L3.06285 14.4457C3.71852 15.1014 4.78157 15.1014 5.43723 14.4457L7.29996 12.583C7.95562 11.9274 7.95562 10.8643 7.29996 10.2086L5.43723 8.34594ZM4.06458 9.34767C4.16701 9.24525 4.33307 9.24525 4.4355 9.34767L6.29822 11.2104C6.40065 11.3128 6.40065 11.4789 6.29822 11.5813L4.4355 13.444C4.33307 13.5464 4.16701 13.5464 4.06458 13.444L2.20186 11.5813C2.09943 11.4789 2.09943 11.3128 2.20186 11.2104L4.06458 9.34767Z" fill="#AFAFAF"/>
<path fill-rule="evenodd" clip-rule="evenodd" d="M8.85419 13.1667C8.85419 14.1447 9.64702 14.9375 10.625 14.9375H14.1667C15.1447 14.9375 15.9375 14.1447 15.9375 13.1667V9.62502C15.9375 8.64701 15.1447 7.85419 14.1667 7.85419H10.625C9.64702 7.85419 8.85419 8.64702 8.85419 9.62502V13.1667ZM10.625 13.5208C10.4294 13.5208 10.2709 13.3623 10.2709 13.1667V9.62502C10.2709 9.42942 10.4294 9.27085 10.625 9.27085H14.1667C14.3623 9.27085 14.5209 9.42942 14.5209 9.62502V13.1667C14.5209 13.3623 14.3623 13.5208 14.1667 13.5208H10.625Z" fill="#AFAFAF"/>
<path fill-rule="evenodd" clip-rule="evenodd" d="M8.85419 3.60417C8.85419 5.56018 10.4399 7.14583 12.3959 7.14583C14.3519 7.14583 15.9375 5.56017 15.9375 3.60417C15.9375 1.64816 14.3519 0.0625 12.3959 0.0625C10.4399 0.0625 8.85419 1.64816 8.85419 3.60417ZM12.3959 1.47917C13.5695 1.47917 14.5209 2.43056 14.5209 3.60417C14.5209 4.77777 13.5695 5.72917 12.3959 5.72917C11.2223 5.72917 10.2709 4.77777 10.2709 3.60417C10.2709 2.43056 11.2223 1.47917 12.3959 1.47917Z" fill="#AFAFAF"/>
</g>
<defs>
<clipPath id="clip0_1_23">
<rect width="16" height="15" fill="white"/>
</clipPath>
</defs>
</svg>
